<svg xmlns="http://www.w3.org/2000/svg" viewBox="0 0 256 256" fill="none">
  <defs>
    <linearGradient id="a" x1="-5.14" y1="37.76" x2="231.38" y2="216.83" gradientUnits="userSpaceOnUse">
      <stop stop-color="#41D1FF"/>
      <stop offset="1" stop-color="#BD34FE"/>
    </linearGradient>
    <linearGradient id="b" x1="49.74" y1="8.72" x2="166.38" y2="216.97" gradientUnits="userSpaceOnUse">
      <stop stop-color="#FFEA83"/>
      <stop offset="0.08" stop-color="#FFDD35"/>
      <stop offset="1" stop-color="#FFA800"/>
    </linearGradient>
  </defs>
  <path fill="url(#a)" d="M255.96 44.74 134.78 250.54c-2.5 4.32-8.71 4.36-11.26.08L.75 44.74c-2.77-4.64 1.03-10.34 6.36-9.52l120.2 18.38a6 6 0 0 0 1.84 0l120.43-18.4c5.34-.82 9.15 4.9 6.38 9.54Z"/>
  <path fill="url(#b)" d="m182.44.34-91.81 17.98a3 3 0 0 0-2.42 2.92l-5.58 94.35a3 3 0 0 0 3.69 3.05l25.59-5.93c2.14-.5 4.07 1.32 3.63 3.47l-7.59 37.04c-.46 2.24 1.6 4.1 3.79 3.4l15.8-4.98c2.19-.69 4.22 1.18 3.77 3.42l-12.06 58.54c-.66 3.2 3.6 4.9 5.36 2.14l1.17-1.84 74.76-149.3c1.08-2.16-.74-4.66-3.15-4.33l-26.28 3.67c-2.18.3-4.01-1.59-3.56-3.74l8.61-41.11c.45-2.15-1.38-4.04-3.56-3.74Z"/>
</svg>
